<svg width="26" height="26" viewBox="0 0 26 26" fill="none" xmlns="http://www.w3.org/2000/svg">
<path opacity="0.4" d="M0 18.447V7.553C0 2.821 2.821 0 7.553 0H18.434C23.179 0 26 2.821 26 7.553V18.434C26 23.166 23.179 25.987 18.447 25.987H7.553C2.821 26 0 23.179 0 18.447Z" fill="#9F9F9F"/>
<path d="M12.3115 21.4891L6.73451 15.9121C6.35751 15.5351 6.35751 14.9111 6.73451 14.5341C7.11151 14.1571 7.73551 14.1571 8.11251 14.5341L12.0255 18.4471V5.2001C12.0255 4.6671 12.4675 4.2251 13.0005 4.2251C13.5335 4.2251 13.9755 4.6671 13.9755 5.2001V18.4471L17.8885 14.5341C18.2655 14.1571 18.8895 14.1571 19.2665 14.5341C19.4615 14.7291 19.5525 14.9761 19.5525 15.2231C19.5525 15.4701 19.4615 15.7171 19.2665 15.9121L13.6895 21.4891C13.5075 21.6711 13.2605 21.7751 13.0005 21.7751C12.7405 21.7751 12.4935 21.6711 12.3115 21.4891Z" fill="#5F6368"/>
</svg>
