<svg width="27" height="26" viewBox="0 0 27 26" fill="none" xmlns="http://www.w3.org/2000/svg">
<path opacity="0.4" d="M0 18.4562V7.55677C0 2.82241 2.82241 0 7.55676 0H18.4432C23.1906 0 26.013 2.82241 26.013 7.55677V18.4432C26.013 23.1775 23.1906 26 18.4562 26H7.55676C2.82241 26.013 0 23.1906 0 18.4562Z" fill="#9F9F9F"/>
<path d="M12.3177 21.4997L6.73787 15.9199C6.36068 15.5427 6.36068 14.9184 6.73787 14.5412C7.11506 14.164 7.73937 14.164 8.11656 14.5412L12.0315 18.4561V5.20254C12.0315 4.66927 12.4737 4.22705 13.007 4.22705C13.5403 4.22705 13.9825 4.66927 13.9825 5.20254V18.4561L17.8974 14.5412C18.2746 14.164 18.8989 14.164 19.2761 14.5412C19.4712 14.7363 19.5623 14.9834 19.5623 15.2305C19.5623 15.4777 19.4712 15.7248 19.2761 15.9199L13.6964 21.4997C13.5143 21.6817 13.2671 21.7858 13.007 21.7858C12.7469 21.7858 12.4998 21.6817 12.3177 21.4997Z" fill="#292D32"/>
</svg>
