<svg width="24" height="20" viewBox="0 0 24 20" fill="none" xmlns="http://www.w3.org/2000/svg">
<path d="M22.4752 6.67834C19.7782 2.44016 15.8319 0 11.6754 0C9.59719 0 7.57734 0.607122 5.73263 1.73964C3.88791 2.88383 2.23 4.55341 0.875656 6.67834C-0.291885 8.51139 -0.291885 11.4886 0.875656 13.3217C3.57268 17.5715 7.51897 20 11.6754 20C13.7536 20 15.7735 19.3929 17.6182 18.2604C19.4629 17.1162 21.1208 15.4466 22.4752 13.3217C23.6427 11.5003 23.6427 8.51139 22.4752 6.67834ZM11.6754 14.7227C9.06012 14.7227 6.95855 12.6095 6.95855 10.0058C6.95855 7.40221 9.06012 5.28896 11.6754 5.28896C14.2907 5.28896 16.3923 7.40221 16.3923 10.0058C16.3923 12.6095 14.2907 14.7227 11.6754 14.7227Z" fill="#979797"/>
<path d="M11.6735 6.66748C9.84051 6.66748 8.3461 8.16191 8.3461 10.0066C8.3461 11.8397 9.84051 13.3341 11.6735 13.3341C13.5066 13.3341 15.0127 11.8397 15.0127 10.0066C15.0127 8.17359 13.5066 6.66748 11.6735 6.66748Z" fill="#979797"/>
</svg>
