<svg width="26" height="26" viewBox="0 0 26 26" fill="none" xmlns="http://www.w3.org/2000/svg">
<path opacity="0.4" d="M7.553 0H18.434C23.179 0 26 2.821 26 7.553V18.434C26 23.166 23.179 25.987 18.447 25.987H7.553C2.821 26 0 23.179 0 18.447V7.553C0 2.821 2.821 0 7.553 0Z" fill="#9F9F9F"/>
<path d="M15.4954 9.07412H8.80029L9.22929 8.64512C9.60629 8.26812 9.60629 7.64412 9.22929 7.26712C8.85229 6.89013 8.22829 6.89013 7.85129 7.26712L5.81029 9.30812C5.43329 9.68512 5.43329 10.3091 5.81029 10.6862L7.85129 12.7272C8.04629 12.9222 8.29329 13.0132 8.54029 13.0132C8.78729 13.0132 9.03429 12.9222 9.22929 12.7272C9.60629 12.3502 9.60629 11.7262 9.22929 11.3492L8.89129 11.0112H15.4954C17.1594 11.0112 18.5244 12.3632 18.5244 14.0402C18.5244 15.7172 17.1724 17.0692 15.4954 17.0692H9.09929C8.56629 17.0692 8.12429 17.5112 8.12429 18.0442C8.12429 18.5772 8.56629 19.0192 9.09929 19.0192H15.4954C18.2384 19.0192 20.4744 16.7832 20.4744 14.0402C20.4744 11.2972 18.2384 9.07412 15.4954 9.07412Z" fill="#292D32"/>
</svg>
