<svg width="26" height="26" viewBox="0 0 26 26" fill="none" xmlns="http://www.w3.org/2000/svg">
<path opacity="0.4" d="M26 7.553V18.447C26 23.179 23.179 26 18.447 26H7.553C7.293 26 7.033 25.987 6.786 25.974C5.187 25.87 3.835 25.415 2.769 24.635C2.223 24.258 1.742 23.777 1.365 23.231C0.468 21.996 0 20.384 0 18.447V7.553C0 3.081 2.522 0.312 6.786 0.039C7.033 0.013 7.293 0 7.553 0H18.447C20.384 0 21.996 0.468 23.231 1.365C23.777 1.742 24.258 2.223 24.635 2.769C25.532 4.004 26 5.616 26 7.553Z" fill="#9F9F9F"/>
<path d="M8.008 6.04492H17.979C18.811 6.04492 19.487 6.72092 19.487 7.55292V9.21692C19.487 9.82792 19.11 10.5819 18.733 10.9589L15.483 13.8319C15.028 14.2089 14.729 14.9629 14.729 15.5739V18.8239C14.729 19.2789 14.43 19.8769 14.053 20.1109L13 20.7739C12.012 21.3849 10.66 20.6959 10.66 19.4869V15.4829C10.66 14.9499 10.361 14.2739 10.049 13.8969L7.176 10.8679C6.799 10.5039 6.5 9.81492 6.5 9.35992V7.63092C6.5 6.72092 7.176 6.04492 8.008 6.04492Z" fill="#9F9F9F"/>
</svg>
